Coordinates
version=1
nRows=8
nColumns=42
inDegrees=yes

Units are S.I. units (second, meters, Newtons, ...)
If the header above contains a line with 'inDegrees', this indicates whether rotational values are in degrees (yes) or radians (no).

endheader
time	pelvis_tilt	pelvis_list	pelvis_rotation	pelvis_tx	pelvis_ty	pelvis_tz	hip_flexion_r	hip_adduction_r	hip_rotation_r	knee_angle_r	knee_adduction_r	knee_angle_r_beta	ankle_angle_r	subtalar_angle_r	mtp_angle_r	hip_flexion_l	hip_adduction_l	hip_rotation_l	knee_angle_l	knee_adduction_l	knee_angle_l_beta	ankle_angle_l	subtalar_angle_l	mtp_angle_l	lumbar_extension	lumbar_bending	lumbar_rotation	arm_flex_r	arm_add_r	arm_rot_r	elbow_flex_r	pro_sup_r	wrist_flex_r	wrist_dev_r	arm_flex_l	arm_add_l	arm_rot_l	elbow_flex_l	pro_sup_l	wrist_flex_l	wrist_dev_l
      0.50000000	      1.01001699	      4.51590269	     11.01218956	     -0.06111043	      0.89281845	      0.37926109	     20.44897672	    -18.25798075	    -22.08924746	     62.95803194	     -1.97295126	      1.09882495	     10.47768514	     -3.67320776	     -9.44024966	      5.49564646	     -1.65739359	     -4.14240122	      3.36331524	      7.14060451	      0.05870092	      6.05426960	     31.51576392	     -9.44024966	    -19.78917821	     -6.70428254	     -3.94534870	     -6.00401982	    -21.89301147	    -19.78037607	     96.80636938	     90.00000001	      0.00000000	      0.00000000	     -0.13066821	    -24.99781769	     13.09297624	     90.29553813	     90.00000001	      0.00000000	      0.00000000
      0.51000000	      0.69106683	      4.60369548	     11.08017405	     -0.05848986	      0.89251432	      0.37973314	     21.65841011	    -18.45539361	    -22.06620303	     60.45422914	     -1.95388589	      1.05512535	     11.76405100	     -3.72328938	     -9.39730065	      5.58967928	     -1.55202623	     -4.08269463	      3.24566204	      7.09032077	      0.05664749	      6.15026187	     31.58211976	     -9.39730065	    -19.83880548	     -6.60573666	     -3.94508610	     -6.12319277	    -21.34842987	    -19.66371416	     94.92791485	     90.00000001	      0.00000000	      0.00000000	      0.72459472	    -25.63507302	     13.52244653	     89.94242530	     90.00000001	      0.00000000	      0.00000000
      0.52000000	      0.44123085	      4.60528989	     11.11281497	     -0.05565411	      0.89232409	      0.38050223	     22.53997890	    -18.32708299	    -22.04900689	     57.37640161	     -1.91626697	      1.00140712	     12.99130950	     -3.16363070	     -9.34555439	      5.64260879	     -1.68358683	     -4.12014386	      3.20006162	      7.25735242	      0.05585161	      6.27015274	     31.65804143	     -9.34555439	    -19.89739772	     -6.42214744	     -3.84923121	     -6.18466117	    -20.74000379	    -19.57855678	     92.95008329	     90.00000001	      0.00000000	      0.00000000	      1.57174786	    -26.19554181	     14.03020631	     89.44765470	     90.00000001	      0.00000000	      0.00000000
      0.53000000	      0.19196505	      4.62292763	     11.08911441	     -0.05261922	      0.89208636	      0.38145250	     23.19478312	    -18.09562832	    -22.04232647	     53.92120885	     -1.82857592	      0.94110263	     13.75694991	     -2.23799331	     -9.29951536	      5.69448062	     -1.78836770	     -4.20664743	      3.21414813	      7.36431037	      0.05609747	      6.45349875	     31.69162536	     -9.29951536	    -19.90294199	     -6.27349555	     -3.69435477	     -6.17625523	    -20.20724904	    -19.38563357	     91.00283318	     90.00000001	      0.00000000	      0.00000000	      2.35308537	    -26.67841059	     14.40551389	     89.05514358	     90.00000001	      0.00000000	      0.00000000
      0.54000000	      0.57655890	      4.44815350	     11.11717429	     -0.04889623	      0.89282202	      0.38266208	     22.65758557	    -17.35284556	    -23.16981393	     49.74876163	     -2.36219351	      0.86827969	     14.52599046	      0.35259999	     -9.19746574	      4.99021891	     -2.41897116	     -4.46569322	      3.11039733	      7.79687510	      0.05428667	      6.58953881	     32.13122644	     -9.19746574	    -20.51043093	     -5.78504383	     -3.47136332	     -6.17709119	    -19.77570021	    -19.09761428	     89.29010693	     90.00000001	      0.00000000	      0.00000000	      3.16923526	    -27.07015773	     14.74883129	     88.75767732	     90.00000001	      0.00000000	      0.00000000
      0.55000000	      0.42954006	      4.53486500	     11.19073771	     -0.04538377	      0.89261397	      0.38381430	     22.67893449	    -17.01872556	    -23.39215983	     45.90239602	     -2.23976219	      0.80114795	     14.68747538	      2.20747451	     -9.09317978	      4.88448557	     -2.48822851	     -4.42532480	      3.08716987	      7.89814436	      0.05388128	      6.81857599	     32.24118970	     -9.09317978	    -20.54115363	     -5.71195014	     -3.40617671	     -6.05791478	    -19.30363259	    -18.63306153	     87.24725238	     90.00000001	      0.00000000	      0.00000000	      3.81510583	    -27.50096481	     14.95152789	     88.52164768	     90.00000001	      0.00000000	      0.00000000
      0.56000000	     -0.14020536	      4.84262037	     11.27792750	     -0.04227330	      0.89161786	      0.38487397	     23.17357151	    -17.00469955	    -22.75499162	     42.45330186	     -1.66628666	      0.74094990	     14.33341987	      3.09515601	     -9.06224141	      5.31388390	     -2.05491604	     -4.26942682	      3.23626457	      7.67626104	      0.05648347	      7.03768559	     32.06418743	     -9.06224141	    -20.15107212	     -5.94464341	     -3.38956065	     -5.89718276	    -18.84064722	    -18.17712955	     85.37232449	     90.00000001	      0.00000000	      0.00000000	      4.45403042	    -27.90714505	     15.18035917	     88.41983612	     90.00000001	      0.00000000	      0.00000000
      0.57000000	     -0.44907453	      5.07419557	     11.48031451	     -0.03875800	      0.89102755	      0.38602810	     23.08012388	    -16.84960867	    -22.35743838	     39.03517531	     -1.10510166	      0.68129233	     13.86892724	      4.22665505	     -9.03196652	      5.38393284	     -1.86828299	     -3.96377588	      3.23130099	      7.67929691	      0.05639684	      7.32801971	     32.02940976	     -9.03196652	    -19.95299113	     -6.04633251	     -3.39393255	     -5.66214571	    -18.47059682	    -17.58916300	     83.26837227	     90.00000001	      0.00000000	      0.00000000	      5.10696125	    -28.32554711	     15.39751184	     88.30687719	     90.00000001	      0.00000000	      0.00000000
